# xmcd
#
# Track frame offsets:
#	150
#	17777
#	38484
#	53576
#	71268
#	86545
#	103077
#	115855
#	141465
#	163452
#	182690
#	192788
#	202570
#	225778
#	262612
#	300507
#	334426
#
# Disc length: 4465 seconds
#
# Revision: 1
# Processed by: cddbd v1.5.1PL2 Copyright (c) Steve Scherf et al.
# Submitted via: audiograbber 1.83.01
#
DISCID=d4116f11
DTITLE=Gerd Bingemann - W Blues
DYEAR=2005
DGENRE=Blues
TTITLE0=Mach di gfasst
TTITLE1=Ich han Jesus früe am Morge
TTITLE2=Hilf du mir
TTITLE3=Lob de Herr mini Seel
TTITLE4=Herr i chume zu dir
TTITLE5=Helm vom Heil
TTITLE6=Alles wa'n i bruche
TTITLE7=Du bisch Herrscher
TTITLE8=Ich han beschlosse
TTITLE9=I dine Wunde
TTITLE10=Halleluja Jesus Chrischtus
TTITLE11=Tuä die Werk
TTITLE12=Ehre sei Gott
TTITLE13=Jahwe/Remix
TTITLE14=Segne mich/Remix
TTITLE15=Wil für Jesus
TTITLE16=Daten-CD
EXTD=
EXTT0=
EXTT1=
EXTT2=
EXTT3=
EXTT4=
EXTT5=
EXTT6=
EXTT7=
EXTT8=
EXTT9=
EXTT10=
EXTT11=
EXTT12=
EXTT13=
EXTT14=
EXTT15=
EXTT16=
PLAYORDER=
